<svg width="90" height="66" viewBox="0 0 90 66" fill="none" xmlns="http://www.w3.org/2000/svg">
<g id="Group 22">
<g id="Vector 20">
<path d="M3.27928 26.9309L68.076 1L88.9152 10.1652V14.189L81.7517 17.0641L81.1005 34.5313L87.6127 36.9163V40.5669L25.4209 65.6037L1 54.6501V50.4028L11.4196 45.932V34.1598L3.27928 30.9546V26.9309Z" fill="#1950DD"/>
<path d="M3.27928 26.9309L68.076 1L88.9152 10.1652M3.27928 26.9309L25.4209 35.8726M3.27928 26.9309V30.9546L11.4196 34.1598V45.932M25.4209 35.8726L88.9152 10.1652M25.4209 35.8726V39.6728M88.9152 10.1652V14.189L81.7517 17.0641M25.4209 39.6728L81.7517 17.0641M25.4209 39.6728L18.4202 36.9163V58.4503M81.1005 34.5313L81.7517 17.0641M81.1005 34.5313L87.6127 36.9163M81.1005 34.5313L18.4202 58.4503M25.4209 65.6037L87.6127 40.5669V36.9163M25.4209 65.6037L1 54.6501V50.4028M25.4209 65.6037V61.3564M1 50.4028L11.4196 55.3207V45.932M1 50.4028L11.4196 45.932M18.4202 58.4503L25.4209 61.3564M25.4209 61.3564L87.6127 36.9163" stroke="#F4F7F8" stroke-width="0.0344485"/>
</g>
<path id="Rectangle 37" d="M26.0711 36.99L88.2642 12.4009L88.2765 14.0158L26.0718 39.0021L26.0711 36.99Z" fill="#F4F7F8"/>
<path id="Rectangle 38" d="M12.0706 34.0842L17.9316 36.3196V58.8974L12.0706 56.2783V34.0842Z" fill="#F4F7F8"/>
<path id="Rectangle 39" d="M3.60474 27.3779L25.0951 36.0961V39.2257L3.60474 30.7892V27.3779Z" fill="#F4F7F8"/>
<path id="Rectangle 40" d="M1.65088 51.0735L25.0949 61.58V64.9331L1.65088 54.4266V51.0735Z" fill="#F4F7F8"/>
</g>
</svg>
