<svg width="94" height="81" viewBox="0 0 94 81" fill="none" xmlns="http://www.w3.org/2000/svg">
<g id="Group 21">
<g id="Vector 19">
<path d="M1 60.4514V36.1728L59.5176 1L63.564 4.11264V21.8547L74.147 26.5482L90.6439 16.5632L93.4453 18.4308V44.5769L34.6165 80.6835L1 60.4514Z" fill="#1950DD"/>
<path d="M1 36.1728V60.4514L34.6165 80.6835M1 36.1728L4.73516 38.9742M1 36.1728L59.5176 1L63.564 4.11264M34.6165 80.6835V54.5374M34.6165 80.6835L93.4453 44.5769V18.4308M34.6165 54.5374L93.4453 18.4308M34.6165 54.5374L31.5038 52.3585M93.4453 18.4308L90.6439 16.5632L74.147 26.5482M31.5038 52.3585V73.8357L4.73516 58.2725M31.5038 52.3585L74.147 26.5482M4.73516 58.2725V38.9742M4.73516 58.2725L63.564 21.8547M4.73516 38.9742L63.564 4.11264M63.564 4.11264V21.8547M63.564 21.8547L74.147 26.5482" stroke="#F4F7F8" stroke-width="0.174425"/>
</g>
<g id="Group 20">
<path id="Rectangle 34" d="M1.62305 38.145L3.80189 39.2861V58.5846L1.62305 60.1408V38.145Z" fill="#F4F7F8"/>
<path id="Rectangle 35" d="M32.127 54.5381L33.9945 55.783V79.4392L32.127 75.5934V54.5381Z" fill="#F4F7F8"/>
<path id="Rectangle 36" d="M3.66481 58.5217L1.62314 60.1408L33.9899 79.4376L32.1267 75.3931L3.66481 58.5217Z" fill="#F4F7F8"/>
</g>
</g>
</svg>
