<svg width="96" height="80" viewBox="0 0 96 80" fill="none" xmlns="http://www.w3.org/2000/svg">
<g id="Group 13">
<path id="Vector 15" d="M69.0195 1.06011L12.501 32.1194C12.3609 32.1964 12.2908 32.2349 12.2393 32.2887C12.1898 32.3404 12.1528 32.4021 12.1309 32.4696C12.1082 32.5397 12.1082 32.6181 12.1082 32.775L12.1082 58.495C12.1082 58.6574 12.1082 58.7387 12.1323 58.8118C12.1555 58.8821 12.1948 58.9468 12.2471 59.0011C12.3015 59.0575 12.3754 59.0981 12.5232 59.1794L12.5232 59.1794L36.8601 72.5636C37.0077 72.6447 37.0815 72.6853 37.1591 72.7015C37.2337 72.7171 37.3106 72.7164 37.3841 72.6994C37.4606 72.6818 37.5317 72.6398 37.6739 72.556L37.6739 72.5559L93.3614 39.7185C93.7556 39.486 93.9527 39.3698 94.0138 39.226C94.0718 39.0893 94.0614 38.9332 93.9855 38.8021C93.9056 38.6641 93.6942 38.5648 93.2713 38.3662L93.2713 38.3661L70.6899 27.7615C70.526 27.6845 70.444 27.646 70.3833 27.5886C70.325 27.5335 70.2809 27.4659 70.2548 27.3917C70.2276 27.3144 70.2276 27.2273 70.2276 27.053L70.2276 1.74866C70.2276 1.31514 70.2276 1.09839 70.1361 0.970487C70.0491 0.84887 69.9109 0.770105 69.7596 0.755867C69.6004 0.74089 69.4068 0.847293 69.0195 1.06011Z" fill="#1950DD" stroke="#1950DD" stroke-width="0.248751"/>
<rect id="Rectangle 29" width="58.0276" height="1.8679" rx="0.933952" transform="matrix(0.876385 -0.481611 0.518617 0.855007 18.4553 36.9963)" fill="#F4F7F8"/>
<rect id="Rectangle 30" width="58.0276" height="1.8679" rx="0.933952" transform="matrix(0.876385 -0.481611 0.518617 0.855007 27.4036 59.8859)" fill="#F4F7F8"/>
<path id="Rectangle 33" d="M21.8388 54.0765C21.8233 54.051 21.8319 54.0188 21.858 54.0044L70.1964 27.4405C70.2225 27.4261 70.2562 27.4351 70.2716 27.4606C70.287 27.486 70.2784 27.5183 70.2523 27.5327L21.914 54.0966C21.8879 54.111 21.8542 54.102 21.8388 54.0765Z" fill="#F4F7F8"/>
<rect id="Rectangle 31" width="58.0276" height="1.8679" rx="0.933952" transform="matrix(0.876385 -0.481611 0.518617 0.855007 34.6738 63.6121)" fill="#F4F7F8"/>
<path id="Rectangle 32" d="M12.3037 32.4714L15.9389 35.133V57.4904L36.9109 69.0776V72.3953L12.3037 58.8212V32.4714Z" fill="#F4F7F8"/>
</g>
</svg>
