<svg width="100" height="66" viewBox="0 0 100 66" fill="none" xmlns="http://www.w3.org/2000/svg">
<g id="Group 24">
<g id="Group 23">
<g id="Vector 2">
<path d="M1 38.3769L64.5077 1L99.9 22.1692V28.1231L37.0538 65.5L1 44.3308V38.3769Z" fill="#1950DD"/>
<path d="M1 38.3769L64.5077 1L99.9 22.1692M1 38.3769L37.0538 59.2154M1 38.3769V44.3308L37.0538 65.5M37.0538 59.2154L99.9 22.1692M37.0538 59.2154V65.5M99.9 22.1692V28.1231L37.0538 65.5" stroke="#F4F7F8" stroke-width="0.0661538"/>
</g>
<path id="Rectangle 41" d="M33.7465 56.8999L95.6017 20.1862L99.2361 22.1772L37.0558 58.8872L33.7465 56.8999Z" fill="#F4F7F8"/>
<path id="Rectangle 42" d="M1.33081 39.0385L35.4 58.5538V60.3693L1.33081 40.6923V39.0385Z" fill="#F4F7F8"/>
</g>
<path id="Rectangle 43" d="M35.4004 58.5538L36.7235 59.2161V64.9183L35.4004 64.0925V58.5538Z" fill="#F4F7F8"/>
<path id="Rectangle 44" d="M38.708 58.5538L37.3849 59.2161V64.9183L38.708 64.0925V58.5538Z" fill="#F4F7F8"/>
</g>
</svg>
