<svg width="116" height="77" viewBox="0 0 116 77" fill="none" xmlns="http://www.w3.org/2000/svg">
<g id="Group 26">
<path id="Vector 22" d="M13.6601 72.9598L111.079 16.7152L102.848 2.25232L5.62546 58.4969L13.6601 72.9598Z" fill="#1950DD" stroke="#F4F7F8" stroke-width="0.321398"/>
<ellipse id="Ellipse 5" cx="106.413" cy="9.79788" rx="5.53501" ry="8.11802" transform="rotate(-30 106.413 9.79788)" fill="#1950DD"/>
<path id="Ellipse 6" d="M14.7177 63.0174C15.9241 65.1068 16.4349 67.3258 16.293 69.22C16.1509 71.1152 15.3585 72.6676 13.9769 73.4653C12.5953 74.263 10.8547 74.1729 9.14236 73.3484C7.43093 72.5242 5.7647 70.9723 4.55839 68.8829C3.35207 66.7935 2.84118 64.5746 2.98317 62.6804C3.12524 60.7852 3.91761 59.2327 5.2992 58.435C6.68079 57.6374 8.42144 57.7274 10.1338 58.552C11.8452 59.3761 13.5114 60.928 14.7177 63.0174Z" fill="#1950DD" stroke="#F4F7F8" stroke-width="0.321398"/>
<ellipse id="Ellipse 7" cx="9.63844" cy="66.1471" rx="4.8727" ry="7.53876" transform="rotate(-30 9.63844 66.1471)" fill="#F4F7F8"/>
<path id="Rectangle 45" d="M98.0253 11.4921L98.0265 11.4934C98.0265 11.4934 99.9755 13.4748 101.037 14.8967C102.571 16.9521 104.307 20.5927 104.307 20.5927L101.037 22.4805C101.037 22.4805 101.452 19.3181 100.838 17.1166C100.251 15.0116 98.0253 11.4921 98.0253 11.4921Z" fill="#F4F7F8"/>
<path id="Rectangle 46" d="M90.8835 15.6255L90.8847 15.6268C90.8847 15.6268 92.8336 17.6082 93.895 19.0301C95.4293 21.0855 97.1648 24.7261 97.1648 24.7261L93.895 26.6139C93.895 26.6139 94.3099 23.4515 93.6962 21.2501C93.1093 19.145 90.8835 15.6255 90.8835 15.6255Z" fill="#F4F7F8"/>
<path id="Rectangle 47" d="M83.6525 19.6437L83.6537 19.645C83.6537 19.645 85.6027 21.6263 86.6641 23.0483C88.1983 25.1037 89.9338 28.7442 89.9338 28.7442L86.6641 30.632C86.6641 30.632 87.079 27.4696 86.4652 25.2682C85.8784 23.1631 83.6525 19.6437 83.6525 19.6437Z" fill="#F4F7F8"/>
<path id="Rectangle 49" d="M67.582 29.2853L67.5832 29.2866C67.5832 29.2866 69.5321 31.2679 70.5935 32.6899C72.1277 34.7453 73.8633 38.3858 73.8633 38.3858L70.5935 40.2736C70.5935 40.2736 71.0084 37.1112 70.3947 34.9098C69.8078 32.8047 67.582 29.2853 67.582 29.2853Z" fill="#F4F7F8"/>
<path id="Rectangle 50" d="M58.7438 34.1069L58.745 34.1082C58.745 34.1082 60.694 36.0896 61.7554 37.5115C63.2896 39.5669 65.0251 43.2075 65.0251 43.2075L61.7554 45.0953C61.7554 45.0953 62.1703 41.9329 61.5565 39.7315C60.9697 37.6264 58.7438 34.1069 58.7438 34.1069Z" fill="#F4F7F8"/>
<path id="Rectangle 51" d="M50.7094 38.9269L50.7106 38.9282C50.7106 38.9282 52.6595 40.9096 53.7209 42.3315C55.2552 44.3869 56.9907 48.0275 56.9907 48.0275L53.7209 49.9153C53.7209 49.9153 54.1358 46.7529 53.5221 44.5515C52.9353 42.4464 50.7094 38.9269 50.7094 38.9269Z" fill="#F4F7F8"/>
<path id="Rectangle 52" d="M41.8715 43.7486L41.8727 43.7499C41.8727 43.7499 43.8216 45.7312 44.8831 47.1532C46.4173 49.2086 48.1528 52.8491 48.1528 52.8491L44.8831 54.7369C44.8831 54.7369 45.2979 51.5745 44.6842 49.3731C44.0974 47.268 41.8715 43.7486 41.8715 43.7486Z" fill="#F4F7F8"/>
<path id="Rectangle 53" d="M33.8351 48.5686L33.8363 48.5699C33.8363 48.5699 35.7853 50.5513 36.8467 51.9732C38.3809 54.0286 40.1164 57.6691 40.1164 57.6691L36.8467 59.557C36.8467 59.557 37.2616 56.3945 36.6479 54.1931C36.061 52.088 33.8351 48.5686 33.8351 48.5686Z" fill="#F4F7F8"/>
<path id="Rectangle 54" d="M26.6044 52.5866L26.6056 52.5879C26.6056 52.5879 28.5546 54.5693 29.616 55.9912C31.1502 58.0466 32.8857 61.6872 32.8857 61.6872L29.616 63.575C29.616 63.575 30.0309 60.4126 29.4171 58.2111C28.8303 56.1061 26.6044 52.5866 26.6044 52.5866Z" fill="#F4F7F8"/>
<path id="Rectangle 48" d="M75.6181 24.4637L75.6193 24.465C75.6193 24.465 77.5682 26.4463 78.6296 27.8683C80.1639 29.9237 81.8994 33.5642 81.8994 33.5642L78.6296 35.452C78.6296 35.452 79.0445 32.2896 78.4308 30.0882C77.844 27.9831 75.6181 24.4637 75.6181 24.4637Z" fill="#F4F7F8"/>
</g>
</svg>
