<svg width="88" height="88" viewBox="0 0 88 88" fill="none" xmlns="http://www.w3.org/2000/svg">
<g id="Group 24">
<g id="Group 23">
<g id="Vector 2">
<path d="M1 33.8284L56.7792 1L87.8645 19.5931L87.8646 54.1716L32.6663 87L1 68.5714V33.8284Z" fill="#1950DD"/>
<path d="M1 33.8284L56.7792 1L87.8645 19.5931M1 33.8284L32.6663 52.131M1 33.8284V68.5714L32.6663 87M32.6663 52.131L87.8645 19.5931M32.6663 52.131V87M87.8645 19.5931L87.8646 54.1716L32.6663 87" stroke="#F4F7F8" stroke-width="0.0581034"/>
</g>
<path id="Rectangle 41" d="M29.7598 50.0966L84.0877 17.8506L87.2798 19.5994L32.6665 51.842L29.7598 50.0966Z" fill="#F4F7F8"/>
<path id="Rectangle 42" d="M1.28882 34.4109L31.2121 51.5514V53.1459L1.28882 35.8635V34.4109Z" fill="#F4F7F8"/>
</g>
<path id="Rectangle 43" d="M31.2119 51.5512L32.374 52.1329V86.814L31.2119 86.1261V51.5512Z" fill="#F4F7F8"/>
<path id="Rectangle 44" d="M34.1167 51.5512L32.9548 52.1329L32.9546 86.8086L34.1167 86.1048V51.5512Z" fill="#F4F7F8"/>
</g>
</svg>
